<svg width="20" height="20" viewBox="0 0 20 20" fill="none" xmlns="http://www.w3.org/2000/svg">
<path d="M17.6909 11.5566C16.5942 13.3866 14.1334 16.4583 10 16.4583C9.19755 16.4583 8.40511 16.3366 7.64511 16.0958C7.31594 15.9916 7.13424 15.6408 7.23841 15.3117C7.34174 14.9817 7.69584 14.8017 8.02251 14.9042C8.66001 15.1058 9.32505 15.2083 10 15.2083C13.5184 15.2083 15.6585 12.5166 16.6201 10.9116C16.9601 10.3483 16.9601 9.6508 16.6218 9.08913C16.3334 8.6033 15.9809 8.10661 15.6 7.64911C15.3792 7.38327 15.416 6.98918 15.6818 6.76918C15.9485 6.54835 16.3417 6.58495 16.5625 6.84995C16.9842 7.35745 17.3758 7.90995 17.6941 8.44745C18.2716 9.40328 18.2717 10.5966 17.6909 11.5566ZM8.38587 12.4984L2.94174 17.9425C2.82007 18.0641 2.66005 18.1258 2.50005 18.1258C2.34005 18.1258 2.18002 18.065 2.05836 17.9425C1.81419 17.6983 1.81419 17.3025 2.05836 17.0583L4.70423 14.4124C3.59757 13.4582 2.79342 12.3641 2.30758 11.555C1.72925 10.5966 1.72921 9.40336 2.30921 8.44419C3.40588 6.61419 5.86672 3.54246 10 3.54246C11.5292 3.54246 12.9709 3.97491 14.2959 4.82074L17.0575 2.0591C17.3017 1.81493 17.6976 1.81493 17.9417 2.0591C18.1859 2.30327 18.1859 2.69913 17.9417 2.9433L8.3875 12.4975C8.3875 12.4975 8.38752 12.4984 8.38669 12.4984C8.38585 12.4984 8.38587 12.4975 8.38587 12.4984ZM8.00745 11.1092L11.1093 8.00738C10.7743 7.81822 10.3984 7.70913 10 7.70913C8.73672 7.70913 7.7092 8.73663 7.7092 10.0008C7.7092 10.3983 7.81912 10.7742 8.00745 11.1092ZM5.58924 13.5266L7.09925 12.0166C6.68675 11.4307 6.4592 10.735 6.4592 9.99917C6.4592 8.04667 8.04755 6.4575 10 6.4575C10.7367 6.4575 11.4316 6.68505 12.0175 7.09755L13.3767 5.7383C12.3225 5.1208 11.1934 4.79002 10 4.79002C6.48172 4.79002 4.34164 7.48169 3.37997 9.08669C3.03997 9.65002 3.04001 10.3475 3.37834 10.9092C3.82584 11.6567 4.56924 12.6674 5.58924 13.5266ZM12.2567 10.3625C12.1067 11.3292 11.3284 12.1083 10.3634 12.2575C10.0226 12.31 9.78845 12.6291 9.84095 12.9699C9.88928 13.2791 10.1551 13.4999 10.4576 13.4999C10.4893 13.4999 10.5218 13.4974 10.5534 13.4924C12.0759 13.2574 13.2567 12.0767 13.4917 10.5534C13.5442 10.2117 13.3109 9.8934 12.9692 9.84007C12.6359 9.78923 12.3092 10.0209 12.2567 10.3625Z" fill="#7C878E"/>
</svg>