<svg width="18" height="18" viewBox="0 0 18 18" fill="none" xmlns="http://www.w3.org/2000/svg">
<path fill-rule="evenodd" clip-rule="evenodd" d="M1.2216 1.22185C1.61213 0.831324 2.24529 0.831324 2.63582 1.22185L8.99978 7.58581L15.3637 1.22185C15.7543 0.831324 16.3874 0.831324 16.778 1.22185C17.1685 1.61237 17.1685 2.24554 16.778 2.63606L10.414 9.00002L16.778 15.364C17.1685 15.7545 17.1685 16.3877 16.778 16.7782C16.3874 17.1687 15.7543 17.1687 15.3637 16.7782L8.99978 10.4142L2.63582 16.7782C2.24529 17.1687 1.61213 17.1687 1.2216 16.7782C0.83108 16.3877 0.83108 15.7545 1.2216 15.364L7.58557 9.00002L1.2216 2.63606C0.83108 2.24554 0.83108 1.61237 1.2216 1.22185Z" fill="#565656"/>
</svg>
