<svg width="16" height="14" viewBox="0 0 16 14" fill="white" xmlns="http://www.w3.org/2000/svg">
<path d="M14.7898 6.89059L8.35391 0.459338C8.30757 0.412907 8.25252 0.37607 8.19193 0.350937C8.13134 0.325803 8.06638 0.312866 8.00078 0.312866C7.93518 0.312866 7.87023 0.325803 7.80963 0.350937C7.74904 0.37607 7.694 0.412907 7.64766 0.459338L1.21172 6.89059C1.02422 7.07809 0.917969 7.33278 0.917969 7.5984C0.917969 8.14996 1.36641 8.5984 1.91797 8.5984H2.59609V13.1875C2.59609 13.464 2.81953 13.6875 3.09609 13.6875H7.00078V10.1875H8.75078V13.6875H12.9055C13.182 13.6875 13.4055 13.464 13.4055 13.1875V8.5984H14.0836C14.3492 8.5984 14.6039 8.49371 14.7914 8.30465C15.1805 7.91403 15.1805 7.28121 14.7898 6.89059Z" fill="white" fill-opacity="0.85"/>
</svg>
