<svg width="288" height="228" viewBox="0 0 288 228" fill="none" xmlns="http://www.w3.org/2000/svg">
<path d="M147.191 220.727C199.745 220.727 242.351 178.12 242.351 125.379C242.351 72.6374 199.557 30.0312 147.191 30.0312C94.6374 30.0312 52.0312 72.6374 52.0312 125.379C52.0312 178.12 94.6374 220.727 147.191 220.727Z" fill="#EAEEF9"/>
<path d="M235.406 63.0646C239.656 63.0646 243.102 59.6193 243.102 55.3692C243.102 51.1192 239.656 47.6738 235.406 47.6738C231.156 47.6738 227.711 51.1192 227.711 55.3692C227.711 59.6193 231.156 63.0646 235.406 63.0646Z" fill="#F1F3F9"/>
<path d="M246.667 33.0342C249.57 33.0342 251.923 30.6813 251.923 27.7788C251.923 24.8764 249.57 22.5234 246.667 22.5234C243.765 22.5234 241.412 24.8764 241.412 27.7788C241.412 30.6813 243.765 33.0342 246.667 33.0342Z" fill="#EAEEF9"/>
<path d="M44.148 76.2032C47.0504 76.2032 49.4033 73.8502 49.4033 70.9478C49.4033 68.0453 47.0504 65.6924 44.148 65.6924C41.2455 65.6924 38.8926 68.0453 38.8926 70.9478C38.8926 73.8502 41.2455 76.2032 44.148 76.2032Z" fill="#EAEEF9"/>
<path d="M73.053 222.228C78.4433 222.228 82.813 217.858 82.813 212.468C82.813 207.078 78.4433 202.708 73.053 202.708C67.6627 202.708 63.293 207.078 63.293 212.468C63.293 217.858 67.6627 222.228 73.053 222.228Z" fill="#EAEEF9"/>
<g filter="url(#filter0_d_218_940)">
<path d="M266 150.913C266 175.165 246.387 194.778 221.924 194.778C221.502 194.778 217.917 194.778 191.556 194.778C173.208 194.778 143.894 194.778 97.0768 194.778H74.7225C45.4088 195.411 22 172.002 22 143.743C22 115.273 45.6197 91.6529 75.3552 93.1291C100.873 13.4127 217.706 24.5899 227.618 107.048C249.55 109.789 266 128.348 266 150.913Z" fill="url(#paint0_linear_218_940)"/>
</g>
<path d="M221.924 194.778C246.176 194.778 266 175.165 266 150.913C266 126.661 246.176 107.048 221.924 107.048C197.671 107.048 177.848 126.661 177.848 150.913C177.848 175.165 197.671 194.778 221.924 194.778Z" fill="url(#paint1_linear_218_940)"/>
<path d="M150.01 195.2C193.242 195.2 228.461 160.192 228.461 116.96C228.461 73.7275 193.242 38.7197 150.01 38.7197C106.777 38.7197 71.5586 73.7275 71.5586 116.96C71.5586 160.192 106.566 195.2 150.01 195.2Z" fill="url(#paint2_linear_218_940)"/>
<path d="M128.267 119.204L131.935 115.526C133.006 114.454 133.006 112.615 131.935 111.543C130.865 110.47 129.031 110.47 127.961 111.543L124.292 115.22L120.623 111.543C119.553 110.47 117.718 110.47 116.648 111.543C115.578 112.615 115.578 114.454 116.648 115.526L120.317 119.204L116.648 122.881C115.578 123.953 115.578 125.792 116.648 126.864C117.26 127.477 117.871 127.631 118.636 127.631C119.4 127.631 120.011 127.324 120.623 126.864L124.292 123.187L127.961 126.864C128.572 127.477 129.184 127.631 129.948 127.631C130.712 127.631 131.324 127.324 131.935 126.864C133.006 125.792 133.006 123.953 131.935 122.881L128.267 119.204Z" fill="#989FB0"/>
<path d="M167.186 119.204L171.262 115.526C172.451 114.454 172.451 112.615 171.262 111.543C170.073 110.47 168.035 110.47 166.846 111.543L162.769 115.22L158.693 111.543C157.504 110.47 155.466 110.47 154.277 111.543C153.088 112.615 153.088 114.454 154.277 115.526L158.353 119.204L154.277 122.881C153.088 123.953 153.088 125.792 154.277 126.864C154.956 127.477 155.635 127.631 156.485 127.631C157.334 127.631 158.013 127.324 158.693 126.864L162.769 123.187L166.846 126.864C167.525 127.477 168.205 127.631 169.054 127.631C169.903 127.631 170.583 127.324 171.262 126.864C172.451 125.792 172.451 123.953 171.262 122.881L167.186 119.204Z" fill="#989FB0"/>
<path fill-rule="evenodd" clip-rule="evenodd" d="M60.921 45.1438C61.361 43.4131 63.1206 42.3667 64.8514 42.8066L77.0892 45.9173C78.82 46.3572 79.8664 48.1169 79.4265 49.8477C78.9865 51.5784 77.2268 52.6248 75.4961 52.1849L63.2582 49.0742C61.5275 48.6343 60.4811 46.8746 60.921 45.1438Z" fill="#989FB0"/>
<path fill-rule="evenodd" clip-rule="evenodd" d="M71.3194 10.7265C72.797 9.72355 74.8078 10.1083 75.8107 11.5859L90.4403 33.1386C91.4432 34.6161 91.0584 36.627 89.5809 37.6299C88.1033 38.6328 86.0925 38.2481 85.0896 36.7705L70.46 15.2178C69.4571 13.7402 69.8419 11.7294 71.3194 10.7265Z" fill="#989FB0"/>
<path fill-rule="evenodd" clip-rule="evenodd" d="M98.4559 1.00656C100.208 0.659826 101.909 1.79885 102.256 3.55065L107.313 29.1038C107.66 30.8556 106.521 32.5568 104.769 32.9035C103.018 33.2502 101.316 32.1112 100.97 30.3594L95.9118 4.8063C95.565 3.0545 96.7041 1.3533 98.4559 1.00656Z" fill="#989FB0"/>
<rect x="123.354" y="144.523" width="43.1692" height="5.63077" fill="#989FB0"/>
<path d="M149.631 146.4H157.139V155.785C157.139 157.858 155.458 159.539 153.385 159.539C151.312 159.539 149.631 157.858 149.631 155.785V146.4Z" fill="#989FB0"/>
<defs>
<filter id="filter0_d_218_940" x="0" y="27.9102" width="288" height="199.881" filterUnits="userSpaceOnUse" color-interpolation-filters="sRGB">
<feFlood flood-opacity="0" result="BackgroundImageFix"/>
<feColorMatrix in="SourceAlpha" type="matrix" values="0 0 0 0 0 0 0 0 0 0 0 0 0 0 0 0 0 0 127 0" result="hardAlpha"/>
<feOffset dy="11"/>
<feGaussianBlur stdDeviation="11"/>
<feColorMatrix type="matrix" values="0 0 0 0 0.397708 0 0 0 0 0.47749 0 0 0 0 0.575 0 0 0 0.27 0"/>
<feBlend mode="normal" in2="BackgroundImageFix" result="effect1_dropShadow_218_940"/>
<feBlend mode="normal" in="SourceGraphic" in2="effect1_dropShadow_218_940" result="shape"/>
</filter>
<linearGradient id="paint0_linear_218_940" x1="144" y1="103.326" x2="143.92" y2="196.471" gradientUnits="userSpaceOnUse">
<stop stop-color="white"/>
<stop offset="0.9964" stop-color="#ECF0F5"/>
</linearGradient>
<linearGradient id="paint1_linear_218_940" x1="173.157" y1="97.6038" x2="212.23" y2="140.338" gradientUnits="userSpaceOnUse">
<stop stop-color="#BCCBE1"/>
<stop offset="0.9942" stop-color="white" stop-opacity="0"/>
</linearGradient>
<linearGradient id="paint2_linear_218_940" x1="64.2124" y1="81.0576" x2="125.795" y2="105.157" gradientUnits="userSpaceOnUse">
<stop stop-color="#E2E8F0"/>
<stop offset="0.9942" stop-color="white" stop-opacity="0"/>
</linearGradient>
</defs>
</svg>
