<svg width="20" height="20" viewBox="0 0 20 20" fill="none" xmlns="http://www.w3.org/2000/svg">
<path d="M17.696 8.44763C16.6019 6.61513 14.1459 3.54102 10.0001 3.54102C5.85428 3.54102 3.39836 6.61513 2.30419 8.44763C1.73169 9.4043 1.73169 10.5936 2.30419 11.5511C3.39836 13.3836 5.85428 16.4577 10.0001 16.4577C14.1459 16.4577 16.6019 13.3836 17.696 11.5511C18.2685 10.5936 18.2685 9.40513 17.696 8.44763ZM16.6234 10.9094C15.6651 12.5144 13.5293 15.2077 10.0001 15.2077C6.47095 15.2077 4.33512 12.5152 3.37678 10.9094C3.04178 10.3477 3.04178 9.65017 3.37678 9.0885C4.33512 7.4835 6.47095 4.7902 10.0001 4.7902C13.5293 4.7902 15.6651 7.48267 16.6234 9.0885C16.9593 9.651 16.9593 10.3477 16.6234 10.9094ZM10.0001 6.45768C8.04678 6.45768 6.45845 8.04685 6.45845 9.99935C6.45845 11.9518 8.04678 13.541 10.0001 13.541C11.9534 13.541 13.5418 11.9518 13.5418 9.99935C13.5418 8.04685 11.9534 6.45768 10.0001 6.45768ZM10.0001 12.291C8.73595 12.291 7.70845 11.2635 7.70845 9.99935C7.70845 8.73518 8.73595 7.70768 10.0001 7.70768C11.2643 7.70768 12.2918 8.73518 12.2918 9.99935C12.2918 11.2635 11.2643 12.291 10.0001 12.291Z" fill="#7C878E"/>
</svg>